<?xml version="1.0" encoding="utf-8"?>
<!-- Svg Vector Icons : http://www.onlinewebfonts.com/icon -->
<!DOCTYPE svg PUBLIC "-//W3C//DTD SVG 1.1//EN" "http://www.w3.org/Graphics/SVG/1.1/DTD/svg11.dtd">
<svg version="1.1" xmlns="http://www.w3.org/2000/svg" xmlns:xlink="http://www.w3.org/1999/xlink" x="0px" y="0px" viewBox="0 0 1000 1000" enable-background="new 0 0 1000 1000" xml:space="preserve">
<metadata> Svg Vector Icons : http://www.onlinewebfonts.com/icon </metadata>
<g><g transform="translate(0.000000,512.000000) scale(0.100000,-0.100000)"><path d="M3077.3,5000.5c-103.6-55.6-105.5-69-107.4-446.9c0-262.7-5.7-351-23-356.7c-13.4-3.8-94-17.3-176.4-30.7c-301.1-46-642.5-187.9-903.3-374l-149.6-107.4L1474,3926.5c-216.7,216.7-251.2,243.6-322.2,253.2c-72.9,9.6-86.3,3.8-149.6-59.5c-63.3-63.3-69-76.7-59.5-149.6c9.6-71,36.4-105.5,253.2-322.2l241.7-243.6l-107.4-149.6c-186-260.8-327.9-602.2-374-903.3c-13.4-82.5-26.8-163-30.7-174.5c-5.8-19.2-94-24.9-358.6-24.9c-329.9,0-354.8-1.9-395.1-40.3c-92.1-86.3-95.9-205.2-9.6-287.7c47.9-44.1,63.3-46,406.6-55.6l356.7-9.6l24.9-161.1c46-291.5,168.8-602.2,343.3-868.8l84.4-126.6l-84.4-122.8c-561.9-807.4-483.3-1873.7,187.9-2579.5c228.2-241.6,492.9-412.3,805.5-521.7c320.3-113.1,387.4-117,1829.6-117h1308v-241.6v-241.7l-61.4,36.4c-475.6,278.1-592.6,335.6-659.7,326c-84.4-13.4-120.8-44.1-153.4-122.8c-21.1-49.9-21.1-74.8-1.9-134.2c21.1-67.1,46-86.3,329.9-249.3c168.8-97.8,306.8-186,306.8-197.5c0-11.5-138.1-99.7-306.8-197.5c-283.8-163-308.8-182.2-329.9-249.3c-19.2-59.5-19.2-84.4,1.9-134.2c32.6-82.5,72.9-111.2,159.2-120.8c65.2-7.7,109.3,11.5,389.3,172.6l316.4,182.2l9.6-381.7l9.6-383.6l53.7-51.8c72.9-72.9,184.1-72.9,257,0l53.7,51.8l9.6,383.6l9.6,383.6l316.4-184.1c280-161.1,324.1-182.2,389.3-172.6c88.2,9.6,126.6,38.4,159.2,120.8c21.1,49.9,21.1,74.8,1.9,134.2c-21.1,67.1-46,86.3-329.9,251.2c-168.8,97.8-308.8,184.1-312.6,193.7c-1.9,7.7,126.6,92.1,287.7,184.1c161.1,92.1,308.8,186,326,209.1c19.2,23,34.5,72.9,34.5,120.8c0,107.4-59.4,176.4-163,189.9c-69,9.6-103.6-5.7-364.4-155.3c-157.3-92.1-303-174.5-320.3-184.1c-32.6-17.3-34.5-1.9-34.5,222.5v239.7h1302.2c1411.5,0,1469.1,3.8,1745.2,107.4c481.4,180.3,863,611.8,1001.1,1129.6c57.5,214.8,57.5,571.5,0,786.3c-47.9,180.3-141.9,385.5-247.4,540.8C9465.6,37.1,9179.8,273,8926.7,390c-53.7,24.9-59.4,38.4-92.1,222.5c-203.3,1158.4-1074,2054-2240,2309.1c-168.8,36.4-258.9,42.2-565.8,44.1c-352.9,0-512.1-19.2-790.1-95.9c-30.7-7.7-44.1-3.8-44.1,13.4c0,32.6-168.8,320.3-253.2,435.3l-61.4,82.5l245.5,245.5c218.6,218.6,245.5,253.2,255.1,324.1c9.6,72.9,3.8,86.3-59.5,149.6c-63.3,63.3-76.7,69-149.6,59.5c-71-9.6-105.5-36.4-322.2-253.2L4605.8,3683l-153.4,105.5c-280,197.5-673.2,354.8-974.3,393.2l-115.1,13.4l-9.6,358.6c-9.6,352.9-11.5,360.6-57.5,408.5C3232.6,5023.5,3148.2,5038.9,3077.3,5000.5z M3639.2,3744.3c483.3-138.1,888-460.3,1123.9-889.9c40.3-71,67.1-132.3,63.3-136.2c-5.8-5.8-71-42.2-147.7-82.5c-475.6-251.2-926.3-703.9-1166-1168c-78.6-153.4-97.8-178.3-132.3-168.8c-21.1,3.8-124.7,19.2-230.1,30.7c-458.4,49.9-951.2-78.6-1355.9-354.8l-128.5-88.2l-71,109.3c-86.3,136.2-180.3,352.9-228.2,533.2c-28.8,107.4-36.4,197.5-34.5,450.7c1.9,285.8,5.8,333.7,51.8,485.2c61.4,199.5,159.2,400.8,272.3,560c94,132.3,343.3,377.8,469.9,464.1c199.5,134.2,483.3,251.2,723,293.4C3015.9,3813.4,3480,3790.4,3639.2,3744.3z M6611.9,2507.3c467.9-122.7,868.8-354.8,1185.2-686.6c312.6-329.9,538.9-751.8,627.1-1171.8l26.8-126.6h-120.8c-101.6,0-130.4-7.7-178.4-47.9c-74.8-61.4-92.1-138.1-53.7-228.2c34.5-84.4,120.8-126.6,255.1-126.6c251.2,0,579.2-149.6,794-366.3c485.2-481.4,479.5-1250.4-11.5-1735.6c-103.6-101.6-180.3-157.3-299.2-216.7c-301.1-147.7-59.5-138.1-3289.1-132.3l-2894,5.8l-140,44.1c-444.9,138.1-805.5,433.4-1008.8,826.6c-120.8,235.9-166.9,406.6-178.4,684.7c-23,498.6,143.8,911,506.3,1256.2c314.5,299.2,705.8,458.4,1131.5,458.4c264.7,0,592.6-92.1,832.3-232.1c159.2-94,245.5-99.7,326-19.2c42.2,44.1,55.6,74.8,55.6,134.3c0,99.7-46,151.5-234,257l-147.7,84.4l82.5,145.7c349.1,611.8,937.8,1051,1603.3,1200.6c266.6,57.5,251.2,57.5,604.1,49.9C6366.4,2561,6441.2,2553.3,6611.9,2507.3z"/><path d="M2620.8-3215.5c-61.4-53.7-63.3-61.4-69-230.1l-7.7-172.6l-143.8,76.7c-118.9,67.1-153.4,76.7-212.9,69.1c-97.8-17.3-157.3-88.2-157.3-193.7c0-97.8,32.6-136.2,180.3-222.5c59.5-32.6,111.2-67.1,117-76.7c5.8-9.6-46-47.9-115.1-86.3c-147.7-84.4-182.2-126.6-182.2-230.1c0-88.2,46-151.5,130.4-184.1c65.2-24.9,124.7-9.6,255.1,70.9c59.5,36.4,113.1,65.2,120.8,65.2c5.8,0,11.5-61.4,11.5-134.2c0-74.8,11.5-164.9,28.8-203.3c55.6-132.3,241.7-151.5,335.6-32.6c30.7,40.3,38.4,78.6,38.4,209c0,88.2,3.8,161.1,9.6,161.1c5.8,0,76.7-36.4,155.3-78.6c138.1-76.7,149.6-78.6,220.6-57.5c90.1,26.8,141.9,97.8,141.9,195.6c0,90.1-40.3,134.2-195.6,222.5c-67.1,36.4-120.8,69-120.8,72.9s61.4,44.1,136.2,88.2c151.5,90.1,201.4,166.9,180.3,268.5c-17.3,72.9-113.1,151.5-186,151.5c-32.6,0-120.8-34.5-199.5-78.6l-141.9-76.7v164.9c0,164.9-1.9,168.8-65.2,232.1C2799.2-3138.8,2709.1-3135,2620.8-3215.5z"/><path d="M7983.1-3179.1c-80.5-32.6-103.6-92.1-103.6-272.3c0-94-5.8-168.8-11.5-168.8c-5.8,0-69.1,34.5-141.9,76.7c-72.9,42.2-153.4,76.7-180.3,76.7c-117,0-203.3-88.2-203.3-207.1c0-78.6,57.5-143.8,203.3-224.4c141.9-80.5,145.8-67.1-51.8-178.3c-157.3-88.2-197.6-214.8-103.6-326c80.6-95.9,145.8-97.8,318.4-5.8c84.4,44.1,155.4,78.6,161.1,78.6s9.6-72.9,9.6-163c0-151.5,3.8-166.9,55.6-224.4c46-51.8,69-63.3,136.2-63.3c67.1,0,90.1,11.5,136.2,63.3c51.8,57.5,55.6,72.9,55.6,224.4c0,90.1,3.8,163,9.6,163s76.7-34.5,161.1-78.6c120.8-63.3,161.1-76.7,209-65.2c80.6,17.3,157.3,111.2,157.3,189.9c0,86.3-55.6,151.5-197.5,234c-65.2,38.4-120.8,71-124.7,74.8c-3.8,3.8,49.9,38.3,118.9,76.7c145.8,80.6,203.3,145.8,203.3,224.4c0,118.9-86.3,207.1-205.2,207.1c-28.8,0-109.3-34.5-180.3-76.7c-71-42.2-134.2-76.7-140-76.7c-5.8,0-11.5,74.8-11.5,164.9c0,90.1-9.6,180.3-19.2,201.4C8201.7-3179.1,8075.2-3140.7,7983.1-3179.1z"/></g></g>
</svg>